# xmcd CD database file
#
# Track frame offsets:
#	150
#	16396
#	33771
#	49515
#	65205
#	84531
#	102936
#	119711
#	135526
#	153931
#	173369
#	190144
#	207952
#	224073
#	241963
#	259798
#	279026
#	294631
#	311937
#
# Disc length: 4349 seconds
#
# Revision: 0
# Processed by: cddbd v1.5.2PL0 Copyright (c) Steve Scherf et al.
# Submitted via: Feurio! 1.68 - http://www.feurio.com
#
DISCID=1410fb13
DTITLE=Various Artist - Lucky´s MusicBox Vol.4
DYEAR=1900
DGENRE=
TTITLE0=Nic - Immer noch
TTITLE1=Denise - Heimlich nach Dir gesehnt
TTITLE2=Tommy Fischer - Ich würde alles tun
TTITLE3=Fantasy - Viel zu oft
TTITLE4=Hansi Süssenbach - Nur für eine Nacht
TTITLE5=Michael Lansen - Kosinus and Maximus
TTITLE6=Mike Bauhaus - Diesmal will ich Liebe
TTITLE7=Tanja Lasch - Ich träume nur
TTITLE8=liver Schelring - Bis zum Mond
TTITLE9=Mick Drth - Klassik Dancer
TTITLE10=Marc O. - Blue Bayou
TTITLE11=Malu - Santo Domingo
TTITLE12=andy Christen - Geh
TTITLE13=Michael Wendler - Prinzessin
TTITLE14=Wilde Herzen - Baby komm her
TTITLE15=Denise - Lügen ja lügen
TTITLE16=Bert Silver - Dreams of love
TTITLE17=Nic - Leg diese Platte auf (Remix)
TTITLE18=S.A.N.Projekt - Sierra Madre del sur
EXTD=
EXTT0=Kommentar: Album: LuckysMusicBox Vol4\r\n
EXTT1=Kommentar: Album: LuckysMusicBox Vol4\r\n
EXTT2=Kommentar: Album: LuckysMusicBox Vol4\r\n
EXTT3=Kommentar: Album: LuckysMusicBox Vol4\r\n
EXTT4=Kommentar: Album: LuckysMusicBox Vol4\r\n
EXTT5=Kommentar: Album: LuckysMusicBox Vol4\r\n
EXTT6=Kommentar: Album: LuckysMusicBox Vol4\r\n
EXTT7=Kommentar: Album: LuckysMusicBox Vol4\r\n
EXTT8=Kommentar: Album: LuckysMusicBox Vol4\r\n
EXTT9=Kommentar: Album: LuckysMusicBox Vol4\r\n
EXTT10=Kommentar: Album: LuckysMusicBox Vol4\r\n
EXTT11=Kommentar: Album: LuckysMusicBox Vol4\r\n
EXTT12=Kommentar: Album: LuckysMusicBox Vol4\r\n
EXTT13=Kommentar: Album: LuckysMusicBox Vol4\r\n
EXTT14=Kommentar: Album: LuckysMusicBox Vol4\r\n
EXTT15=Kommentar: Album: LuckysMusicBox Vol4\r\n
EXTT16=Kommentar: Album: LuckysMusicBox Vol4\r\n
EXTT17=Kommentar: Album: LuckysMusicBox Vol4\r\n
EXTT18=Kommentar: Album: LuckysMusicBox Vol4\r\n
PLAYORDER=
